<mxfile host="app.diagrams.net" agent="Mozilla/5.0 (X11; Linux x86_64) AppleWebKit/537.36 (KHTML, like Gecko) Chrome/127.0.0.0 Safari/537.36" version="24.7.10">
  <diagram name="Page-1" id="53GxcRvlC-DH4hCnHQ1a">
    <mxGraphModel dx="3271" dy="1301" grid="1" gridSize="10" guides="1" tooltips="1" connect="1" arrows="1" fold="1" page="1" pageScale="1" pageWidth="850" pageHeight="1100" math="0" shadow="0">
      <root>
        <mxCell id="0" />
        <mxCell id="1" parent="0" />
        <mxCell id="ZbpCsTLpdmBn-0mFTXTY-1" value="&lt;span style=&quot;font-weight: 400;&quot;&gt;Directory&lt;/span&gt;" style="swimlane;fontStyle=1;align=center;verticalAlign=top;childLayout=stackLayout;horizontal=1;startSize=26;horizontalStack=0;resizeParent=1;resizeParentMax=0;resizeLast=0;collapsible=1;marginBottom=0;whiteSpace=wrap;html=1;" vertex="1" parent="1">
          <mxGeometry x="420" y="400" width="210" height="196" as="geometry" />
        </mxCell>
        <mxCell id="ZbpCsTLpdmBn-0mFTXTY-2" value="- files: IFile[]" style="text;strokeColor=none;fillColor=none;align=left;verticalAlign=top;spacingLeft=4;spacingRight=4;overflow=hidden;rotatable=0;points=[[0,0.5],[1,0.5]];portConstraint=eastwest;whiteSpace=wrap;html=1;" vertex="1" parent="ZbpCsTLpdmBn-0mFTXTY-1">
          <mxGeometry y="26" width="210" height="26" as="geometry" />
        </mxCell>
        <mxCell id="ZbpCsTLpdmBn-0mFTXTY-4" value="- name: str" style="text;strokeColor=none;fillColor=none;align=left;verticalAlign=top;spacingLeft=4;spacingRight=4;overflow=hidden;rotatable=0;points=[[0,0.5],[1,0.5]];portConstraint=eastwest;whiteSpace=wrap;html=1;" vertex="1" parent="ZbpCsTLpdmBn-0mFTXTY-1">
          <mxGeometry y="52" width="210" height="26" as="geometry" />
        </mxCell>
        <mxCell id="ZbpCsTLpdmBn-0mFTXTY-21" value="- name_strategy: INameStrategy" style="text;strokeColor=none;fillColor=none;align=left;verticalAlign=top;spacingLeft=4;spacingRight=4;overflow=hidden;rotatable=0;points=[[0,0.5],[1,0.5]];portConstraint=eastwest;whiteSpace=wrap;html=1;" vertex="1" parent="ZbpCsTLpdmBn-0mFTXTY-1">
          <mxGeometry y="78" width="210" height="26" as="geometry" />
        </mxCell>
        <mxCell id="ZbpCsTLpdmBn-0mFTXTY-3" value="" style="line;strokeWidth=1;fillColor=none;align=left;verticalAlign=middle;spacingTop=-1;spacingLeft=3;spacingRight=3;rotatable=0;labelPosition=right;points=[];portConstraint=eastwest;strokeColor=inherit;" vertex="1" parent="ZbpCsTLpdmBn-0mFTXTY-1">
          <mxGeometry y="104" width="210" height="8" as="geometry" />
        </mxCell>
        <mxCell id="ZbpCsTLpdmBn-0mFTXTY-28" value="+ get_name(): str" style="text;strokeColor=none;fillColor=none;align=left;verticalAlign=top;spacingLeft=4;spacingRight=4;overflow=hidden;rotatable=0;points=[[0,0.5],[1,0.5]];portConstraint=eastwest;whiteSpace=wrap;html=1;" vertex="1" parent="ZbpCsTLpdmBn-0mFTXTY-1">
          <mxGeometry y="112" width="210" height="26" as="geometry" />
        </mxCell>
        <mxCell id="ZbpCsTLpdmBn-0mFTXTY-29" value="+ get_size(): int" style="text;strokeColor=none;fillColor=none;align=left;verticalAlign=top;spacingLeft=4;spacingRight=4;overflow=hidden;rotatable=0;points=[[0,0.5],[1,0.5]];portConstraint=eastwest;whiteSpace=wrap;html=1;" vertex="1" parent="ZbpCsTLpdmBn-0mFTXTY-1">
          <mxGeometry y="138" width="210" height="32" as="geometry" />
        </mxCell>
        <mxCell id="ZbpCsTLpdmBn-0mFTXTY-38" value="+ get_string(): str" style="text;strokeColor=none;fillColor=none;align=left;verticalAlign=top;spacingLeft=4;spacingRight=4;overflow=hidden;rotatable=0;points=[[0,0.5],[1,0.5]];portConstraint=eastwest;whiteSpace=wrap;html=1;" vertex="1" parent="ZbpCsTLpdmBn-0mFTXTY-1">
          <mxGeometry y="170" width="210" height="26" as="geometry" />
        </mxCell>
        <mxCell id="ZbpCsTLpdmBn-0mFTXTY-8" value="IFile" style="swimlane;fontStyle=1;align=center;verticalAlign=top;childLayout=stackLayout;horizontal=1;startSize=26;horizontalStack=0;resizeParent=1;resizeParentMax=0;resizeLast=0;collapsible=1;marginBottom=0;whiteSpace=wrap;html=1;" vertex="1" parent="1">
          <mxGeometry x="280" y="100" width="160" height="112" as="geometry" />
        </mxCell>
        <mxCell id="ZbpCsTLpdmBn-0mFTXTY-9" value="" style="line;strokeWidth=1;fillColor=none;align=left;verticalAlign=middle;spacingTop=-1;spacingLeft=3;spacingRight=3;rotatable=0;labelPosition=right;points=[];portConstraint=eastwest;strokeColor=inherit;" vertex="1" parent="ZbpCsTLpdmBn-0mFTXTY-8">
          <mxGeometry y="26" width="160" height="8" as="geometry" />
        </mxCell>
        <mxCell id="ZbpCsTLpdmBn-0mFTXTY-10" value="+ get_string(): str" style="text;strokeColor=none;fillColor=none;align=left;verticalAlign=top;spacingLeft=4;spacingRight=4;overflow=hidden;rotatable=0;points=[[0,0.5],[1,0.5]];portConstraint=eastwest;whiteSpace=wrap;html=1;" vertex="1" parent="ZbpCsTLpdmBn-0mFTXTY-8">
          <mxGeometry y="34" width="160" height="26" as="geometry" />
        </mxCell>
        <mxCell id="ZbpCsTLpdmBn-0mFTXTY-22" value="+ get_name(): str" style="text;strokeColor=none;fillColor=none;align=left;verticalAlign=top;spacingLeft=4;spacingRight=4;overflow=hidden;rotatable=0;points=[[0,0.5],[1,0.5]];portConstraint=eastwest;whiteSpace=wrap;html=1;" vertex="1" parent="ZbpCsTLpdmBn-0mFTXTY-8">
          <mxGeometry y="60" width="160" height="26" as="geometry" />
        </mxCell>
        <mxCell id="ZbpCsTLpdmBn-0mFTXTY-23" value="+ get_size(): int" style="text;strokeColor=none;fillColor=none;align=left;verticalAlign=top;spacingLeft=4;spacingRight=4;overflow=hidden;rotatable=0;points=[[0,0.5],[1,0.5]];portConstraint=eastwest;whiteSpace=wrap;html=1;" vertex="1" parent="ZbpCsTLpdmBn-0mFTXTY-8">
          <mxGeometry y="86" width="160" height="26" as="geometry" />
        </mxCell>
        <mxCell id="ZbpCsTLpdmBn-0mFTXTY-12" value="" style="endArrow=block;dashed=1;endFill=0;endSize=12;html=1;rounded=0;exitX=0.25;exitY=0;exitDx=0;exitDy=0;entryX=0.818;entryY=1.038;entryDx=0;entryDy=0;entryPerimeter=0;" edge="1" parent="1" source="ZbpCsTLpdmBn-0mFTXTY-1" target="ZbpCsTLpdmBn-0mFTXTY-23">
          <mxGeometry width="160" relative="1" as="geometry">
            <mxPoint x="180" y="206" as="sourcePoint" />
            <mxPoint x="360" y="260" as="targetPoint" />
          </mxGeometry>
        </mxCell>
        <mxCell id="ZbpCsTLpdmBn-0mFTXTY-16" value="&lt;span style=&quot;font-weight: 400;&quot;&gt;File&lt;/span&gt;" style="swimlane;fontStyle=1;align=center;verticalAlign=top;childLayout=stackLayout;horizontal=1;startSize=26;horizontalStack=0;resizeParent=1;resizeParentMax=0;resizeLast=0;collapsible=1;marginBottom=0;whiteSpace=wrap;html=1;" vertex="1" parent="1">
          <mxGeometry x="160" y="400" width="220" height="170" as="geometry" />
        </mxCell>
        <mxCell id="ZbpCsTLpdmBn-0mFTXTY-17" value="- name: str" style="text;strokeColor=none;fillColor=none;align=left;verticalAlign=top;spacingLeft=4;spacingRight=4;overflow=hidden;rotatable=0;points=[[0,0.5],[1,0.5]];portConstraint=eastwest;whiteSpace=wrap;html=1;" vertex="1" parent="ZbpCsTLpdmBn-0mFTXTY-16">
          <mxGeometry y="26" width="220" height="26" as="geometry" />
        </mxCell>
        <mxCell id="ZbpCsTLpdmBn-0mFTXTY-19" value="- name_strategy: INameStrategy" style="text;strokeColor=none;fillColor=none;align=left;verticalAlign=top;spacingLeft=4;spacingRight=4;overflow=hidden;rotatable=0;points=[[0,0.5],[1,0.5]];portConstraint=eastwest;whiteSpace=wrap;html=1;" vertex="1" parent="ZbpCsTLpdmBn-0mFTXTY-16">
          <mxGeometry y="52" width="220" height="26" as="geometry" />
        </mxCell>
        <mxCell id="ZbpCsTLpdmBn-0mFTXTY-18" value="" style="line;strokeWidth=1;fillColor=none;align=left;verticalAlign=middle;spacingTop=-1;spacingLeft=3;spacingRight=3;rotatable=0;labelPosition=right;points=[];portConstraint=eastwest;strokeColor=inherit;" vertex="1" parent="ZbpCsTLpdmBn-0mFTXTY-16">
          <mxGeometry y="78" width="220" height="8" as="geometry" />
        </mxCell>
        <mxCell id="ZbpCsTLpdmBn-0mFTXTY-26" value="+ get_name(): str" style="text;strokeColor=none;fillColor=none;align=left;verticalAlign=top;spacingLeft=4;spacingRight=4;overflow=hidden;rotatable=0;points=[[0,0.5],[1,0.5]];portConstraint=eastwest;whiteSpace=wrap;html=1;" vertex="1" parent="ZbpCsTLpdmBn-0mFTXTY-16">
          <mxGeometry y="86" width="220" height="26" as="geometry" />
        </mxCell>
        <mxCell id="ZbpCsTLpdmBn-0mFTXTY-27" value="+ get_size(): int" style="text;strokeColor=none;fillColor=none;align=left;verticalAlign=top;spacingLeft=4;spacingRight=4;overflow=hidden;rotatable=0;points=[[0,0.5],[1,0.5]];portConstraint=eastwest;whiteSpace=wrap;html=1;" vertex="1" parent="ZbpCsTLpdmBn-0mFTXTY-16">
          <mxGeometry y="112" width="220" height="26" as="geometry" />
        </mxCell>
        <mxCell id="ZbpCsTLpdmBn-0mFTXTY-36" value="+ get_string(): str" style="text;strokeColor=none;fillColor=none;align=left;verticalAlign=top;spacingLeft=4;spacingRight=4;overflow=hidden;rotatable=0;points=[[0,0.5],[1,0.5]];portConstraint=eastwest;whiteSpace=wrap;html=1;" vertex="1" parent="ZbpCsTLpdmBn-0mFTXTY-16">
          <mxGeometry y="138" width="220" height="32" as="geometry" />
        </mxCell>
        <mxCell id="ZbpCsTLpdmBn-0mFTXTY-24" value="" style="endArrow=block;dashed=1;endFill=0;endSize=12;html=1;rounded=0;exitX=0.5;exitY=0;exitDx=0;exitDy=0;entryX=0.188;entryY=1.071;entryDx=0;entryDy=0;entryPerimeter=0;" edge="1" parent="1" source="ZbpCsTLpdmBn-0mFTXTY-16" target="ZbpCsTLpdmBn-0mFTXTY-23">
          <mxGeometry width="160" relative="1" as="geometry">
            <mxPoint x="219" y="377" as="sourcePoint" />
            <mxPoint x="170" y="190" as="targetPoint" />
          </mxGeometry>
        </mxCell>
        <mxCell id="ZbpCsTLpdmBn-0mFTXTY-39" value="INameStrategy" style="swimlane;fontStyle=1;align=center;verticalAlign=top;childLayout=stackLayout;horizontal=1;startSize=26;horizontalStack=0;resizeParent=1;resizeParentMax=0;resizeLast=0;collapsible=1;marginBottom=0;whiteSpace=wrap;html=1;" vertex="1" parent="1">
          <mxGeometry x="-320" y="400" width="160" height="60" as="geometry" />
        </mxCell>
        <mxCell id="ZbpCsTLpdmBn-0mFTXTY-40" value="" style="line;strokeWidth=1;fillColor=none;align=left;verticalAlign=middle;spacingTop=-1;spacingLeft=3;spacingRight=3;rotatable=0;labelPosition=right;points=[];portConstraint=eastwest;strokeColor=inherit;" vertex="1" parent="ZbpCsTLpdmBn-0mFTXTY-39">
          <mxGeometry y="26" width="160" height="8" as="geometry" />
        </mxCell>
        <mxCell id="ZbpCsTLpdmBn-0mFTXTY-42" value="+ get_name(file: IFile): str" style="text;strokeColor=none;fillColor=none;align=left;verticalAlign=top;spacingLeft=4;spacingRight=4;overflow=hidden;rotatable=0;points=[[0,0.5],[1,0.5]];portConstraint=eastwest;whiteSpace=wrap;html=1;" vertex="1" parent="ZbpCsTLpdmBn-0mFTXTY-39">
          <mxGeometry y="34" width="160" height="26" as="geometry" />
        </mxCell>
        <mxCell id="ZbpCsTLpdmBn-0mFTXTY-48" value="NameWithSizeStrategy" style="swimlane;fontStyle=1;align=center;verticalAlign=top;childLayout=stackLayout;horizontal=1;startSize=26;horizontalStack=0;resizeParent=1;resizeParentMax=0;resizeLast=0;collapsible=1;marginBottom=0;whiteSpace=wrap;html=1;" vertex="1" parent="1">
          <mxGeometry x="-100" y="590" width="160" height="60" as="geometry" />
        </mxCell>
        <mxCell id="ZbpCsTLpdmBn-0mFTXTY-49" value="" style="line;strokeWidth=1;fillColor=none;align=left;verticalAlign=middle;spacingTop=-1;spacingLeft=3;spacingRight=3;rotatable=0;labelPosition=right;points=[];portConstraint=eastwest;strokeColor=inherit;" vertex="1" parent="ZbpCsTLpdmBn-0mFTXTY-48">
          <mxGeometry y="26" width="160" height="8" as="geometry" />
        </mxCell>
        <mxCell id="ZbpCsTLpdmBn-0mFTXTY-50" value="+ get_name(file: IFile): str" style="text;strokeColor=none;fillColor=none;align=left;verticalAlign=top;spacingLeft=4;spacingRight=4;overflow=hidden;rotatable=0;points=[[0,0.5],[1,0.5]];portConstraint=eastwest;whiteSpace=wrap;html=1;" vertex="1" parent="ZbpCsTLpdmBn-0mFTXTY-48">
          <mxGeometry y="34" width="160" height="26" as="geometry" />
        </mxCell>
        <mxCell id="ZbpCsTLpdmBn-0mFTXTY-51" value="NameWithColorStrategy" style="swimlane;fontStyle=1;align=center;verticalAlign=top;childLayout=stackLayout;horizontal=1;startSize=26;horizontalStack=0;resizeParent=1;resizeParentMax=0;resizeLast=0;collapsible=1;marginBottom=0;whiteSpace=wrap;html=1;" vertex="1" parent="1">
          <mxGeometry x="-280" y="590" width="160" height="86" as="geometry" />
        </mxCell>
        <mxCell id="ZbpCsTLpdmBn-0mFTXTY-53" value="- color: str" style="text;strokeColor=none;fillColor=none;align=left;verticalAlign=top;spacingLeft=4;spacingRight=4;overflow=hidden;rotatable=0;points=[[0,0.5],[1,0.5]];portConstraint=eastwest;whiteSpace=wrap;html=1;" vertex="1" parent="ZbpCsTLpdmBn-0mFTXTY-51">
          <mxGeometry y="26" width="160" height="26" as="geometry" />
        </mxCell>
        <mxCell id="ZbpCsTLpdmBn-0mFTXTY-52" value="" style="line;strokeWidth=1;fillColor=none;align=left;verticalAlign=middle;spacingTop=-1;spacingLeft=3;spacingRight=3;rotatable=0;labelPosition=right;points=[];portConstraint=eastwest;strokeColor=inherit;" vertex="1" parent="ZbpCsTLpdmBn-0mFTXTY-51">
          <mxGeometry y="52" width="160" height="8" as="geometry" />
        </mxCell>
        <mxCell id="ZbpCsTLpdmBn-0mFTXTY-61" value="+ get_name(file: IFile): str" style="text;strokeColor=none;fillColor=none;align=left;verticalAlign=top;spacingLeft=4;spacingRight=4;overflow=hidden;rotatable=0;points=[[0,0.5],[1,0.5]];portConstraint=eastwest;whiteSpace=wrap;html=1;" vertex="1" parent="ZbpCsTLpdmBn-0mFTXTY-51">
          <mxGeometry y="60" width="160" height="26" as="geometry" />
        </mxCell>
        <mxCell id="ZbpCsTLpdmBn-0mFTXTY-54" value="DefaultNameStrategy" style="swimlane;fontStyle=1;align=center;verticalAlign=top;childLayout=stackLayout;horizontal=1;startSize=26;horizontalStack=0;resizeParent=1;resizeParentMax=0;resizeLast=0;collapsible=1;marginBottom=0;whiteSpace=wrap;html=1;" vertex="1" parent="1">
          <mxGeometry x="-480" y="590" width="160" height="60" as="geometry" />
        </mxCell>
        <mxCell id="ZbpCsTLpdmBn-0mFTXTY-55" value="" style="line;strokeWidth=1;fillColor=none;align=left;verticalAlign=middle;spacingTop=-1;spacingLeft=3;spacingRight=3;rotatable=0;labelPosition=right;points=[];portConstraint=eastwest;strokeColor=inherit;" vertex="1" parent="ZbpCsTLpdmBn-0mFTXTY-54">
          <mxGeometry y="26" width="160" height="8" as="geometry" />
        </mxCell>
        <mxCell id="ZbpCsTLpdmBn-0mFTXTY-56" value="+ get_name(file: IFile): str" style="text;strokeColor=none;fillColor=none;align=left;verticalAlign=top;spacingLeft=4;spacingRight=4;overflow=hidden;rotatable=0;points=[[0,0.5],[1,0.5]];portConstraint=eastwest;whiteSpace=wrap;html=1;" vertex="1" parent="ZbpCsTLpdmBn-0mFTXTY-54">
          <mxGeometry y="34" width="160" height="26" as="geometry" />
        </mxCell>
        <mxCell id="ZbpCsTLpdmBn-0mFTXTY-58" value="" style="endArrow=block;dashed=1;endFill=0;endSize=12;html=1;rounded=0;entryX=0.104;entryY=0.955;entryDx=0;entryDy=0;entryPerimeter=0;exitX=0.5;exitY=0;exitDx=0;exitDy=0;" edge="1" parent="1" source="ZbpCsTLpdmBn-0mFTXTY-54" target="ZbpCsTLpdmBn-0mFTXTY-42">
          <mxGeometry width="160" relative="1" as="geometry">
            <mxPoint x="-580" y="900" as="sourcePoint" />
            <mxPoint x="-420" y="900" as="targetPoint" />
          </mxGeometry>
        </mxCell>
        <mxCell id="ZbpCsTLpdmBn-0mFTXTY-59" value="" style="endArrow=block;dashed=1;endFill=0;endSize=12;html=1;rounded=0;entryX=0.427;entryY=0.955;entryDx=0;entryDy=0;entryPerimeter=0;exitX=0.5;exitY=0;exitDx=0;exitDy=0;" edge="1" parent="1" source="ZbpCsTLpdmBn-0mFTXTY-51" target="ZbpCsTLpdmBn-0mFTXTY-42">
          <mxGeometry width="160" relative="1" as="geometry">
            <mxPoint x="-310" y="900" as="sourcePoint" />
            <mxPoint x="-150" y="900" as="targetPoint" />
          </mxGeometry>
        </mxCell>
        <mxCell id="ZbpCsTLpdmBn-0mFTXTY-60" value="" style="endArrow=block;dashed=1;endFill=0;endSize=12;html=1;rounded=0;exitX=0.5;exitY=0;exitDx=0;exitDy=0;entryX=0.839;entryY=1.019;entryDx=0;entryDy=0;entryPerimeter=0;" edge="1" parent="1" source="ZbpCsTLpdmBn-0mFTXTY-48" target="ZbpCsTLpdmBn-0mFTXTY-42">
          <mxGeometry width="160" relative="1" as="geometry">
            <mxPoint x="-220" y="850" as="sourcePoint" />
            <mxPoint x="-180" y="510" as="targetPoint" />
          </mxGeometry>
        </mxCell>
        <mxCell id="ZbpCsTLpdmBn-0mFTXTY-62" value="" style="endArrow=diamondThin;endFill=0;endSize=24;html=1;rounded=0;exitX=1;exitY=0.25;exitDx=0;exitDy=0;entryX=-0.004;entryY=0.082;entryDx=0;entryDy=0;entryPerimeter=0;" edge="1" parent="1" source="ZbpCsTLpdmBn-0mFTXTY-39" target="ZbpCsTLpdmBn-0mFTXTY-16">
          <mxGeometry width="160" relative="1" as="geometry">
            <mxPoint x="-240" y="570" as="sourcePoint" />
            <mxPoint x="150" y="410" as="targetPoint" />
          </mxGeometry>
        </mxCell>
        <mxCell id="ZbpCsTLpdmBn-0mFTXTY-63" value="" style="endArrow=diamondThin;endFill=0;endSize=24;html=1;rounded=0;entryX=1.013;entryY=0.086;entryDx=0;entryDy=0;entryPerimeter=0;exitX=0.999;exitY=0.126;exitDx=0;exitDy=0;exitPerimeter=0;" edge="1" parent="1" source="ZbpCsTLpdmBn-0mFTXTY-8" target="ZbpCsTLpdmBn-0mFTXTY-1">
          <mxGeometry width="160" relative="1" as="geometry">
            <mxPoint x="240" y="720" as="sourcePoint" />
            <mxPoint x="400" y="720" as="targetPoint" />
            <Array as="points">
              <mxPoint x="700" y="114" />
              <mxPoint x="700" y="417" />
            </Array>
          </mxGeometry>
        </mxCell>
        <mxCell id="ZbpCsTLpdmBn-0mFTXTY-64" value="" style="endArrow=diamondThin;endFill=0;endSize=24;html=1;rounded=0;entryX=0.524;entryY=1.093;entryDx=0;entryDy=0;entryPerimeter=0;exitX=0.5;exitY=1;exitDx=0;exitDy=0;" edge="1" parent="1" source="ZbpCsTLpdmBn-0mFTXTY-65" target="ZbpCsTLpdmBn-0mFTXTY-38">
          <mxGeometry width="160" relative="1" as="geometry">
            <mxPoint x="80" y="420" as="sourcePoint" />
            <mxPoint x="330" y="580" as="targetPoint" />
            <Array as="points">
              <mxPoint x="90" y="660" />
              <mxPoint x="530" y="660" />
            </Array>
          </mxGeometry>
        </mxCell>
        <mxCell id="ZbpCsTLpdmBn-0mFTXTY-65" value="" style="ellipse;whiteSpace=wrap;html=1;aspect=fixed;" vertex="1" parent="1">
          <mxGeometry x="80" y="410" width="10" height="10" as="geometry" />
        </mxCell>
      </root>
    </mxGraphModel>
  </diagram>
</mxfile>
